inDegrees=yes
name=coleta1_motion.mot
DataType=double
version=3
OpenSimVersion=4.4-2022-07-23-0e9fedc
endheader
time	pelvis_tilt	pelvis_list	pelvis_rotation	pelvis_tx	pelvis_ty	pelvis_tz	hip_flexion_r	hip_adduction_r	hip_rotation_r	knee_angle_r	knee_angle_r_beta	ankle_angle_r	subtalar_angle_r	mtp_angle_r	hip_flexion_l	hip_adduction_l	hip_rotation_l	knee_angle_l	knee_angle_l_beta	ankle_angle_l	subtalar_angle_l	mtp_angle_l	lumbar_extension	lumbar_bending	lumbar_rotation	arm_flex_r	arm_add_r	arm_rot_r	elbow_flex_r	pro_sup_r	wrist_flex_r	wrist_dev_r	arm_flex_l	arm_add_l	arm_rot_l	elbow_flex_l	pro_sup_l	wrist_flex_l	wrist_dev_l
12.73207402229309	0	0	0	0	0.93	0	-22.31715208790953	-0.207050716432757	-39.9994667606185	0.005332980953702246	9.307807658825147e-05	-5.001264748395702	0	0	42.63464236303341	-10.00210421957727	4.360243369569146e-15	59.02815636551308	1.030235679960253	-5.001264743787145	0	0	0	0	0	0	0	0	1.01444162537536e-38	2.605425324178359e-38	0	0	0	0	0	1.01444162537536e-38	2.605425324178359e-38	0	0
12.73607015609741	0	0	0	0	0.93	0	-20.05592578187176	-1.078471580789918	-39.99946577115526	0.005041090614813002	8.798362911987212e-05	-5.0012398081773	0	0	42.65102625561398	-10.00206918535891	3.703805464513814e-15	59.03443643368567	1.030345287827114	-5.001239803666602	0	0	0	0	0	0	0	0	0	0	0	0	0	0	0	4.062110610496848e-38	0	0	0
12.74206614494324	7.0552430006321e-28	-1.299552365865437e-21	6.0625692676578e-29	-5.690605975101685e-22	0.93	-4.425530539716515e-22	-19.79191629757216	-0.8775614500176179	-39.99946328079233	0.005129551351852773	8.952756023995702e-05	-5.001237352467951	1.323899608826676e-19	-2.227449493688204e-23	42.65216359048189	-10.00206596915366	3.695675167251138e-15	59.03481803266047	1.030351947985647	-5.001237347966188	1.562056721004682e-23	3.50001949922151e-23	0	3.925157823772802e-21	-6.069677848773562e-29	5.91676072722207e-18	-3.371542940871937e-24	3.238882167101718e-17	0	0	2.416219709375173e-22	-4.772697980915995e-23	2.711820885093662e-17	9.359499543613362e-19	1.823364573636231e-17	0	0	-2.710501071170745e-22	1.75128253656861e-22
12.74707388877869	0	0	0	0	0.93	0	-18.19900619749242	-1.437298850205686	-39.99946171175305	0.004915659896592731	8.579445010378714e-05	-5.001215112464805	0	0	42.66609112278827	-10.00203512703904	3.295519907229928e-15	59.04010920329824	1.030444296334561	-5.001215108043945	0	0	0	0	0	0	0	0	0	0	0	0	0	0	0	0	0	0	0
12.75607585906982	0	0	0	0	0.93	0	-16.89885298212637	-1.844470466925753	-39.99945985469373	0.004847020255909991	8.459646237648748e-05	-5.001194739108021	0	0	42.67898253176206	-10.0020067781051	3.237466177690357e-15	59.04498066637332	1.03052931940461	-5.001194734760845	0	0	0	0	0	0	0	0	4.209429071474227e-38	1.97124474121865e-38	0	0	0	0	0	7.224904160643643e-39	4.292751314520079e-38	0	0
12.76207494735718	-6.018852850983463e-12	2.413910410581263e-11	-6.819161456924616e-12	1.528592475689668e-17	0.93	-3.154309029803509e-19	-14.04874889024889	-2.8015519570444	-39.99945527411516	0.004714101913726316	8.227659937584992e-05	-5.001169381998828	-9.761966411199898e-18	4.006818299590429e-18	42.69652739323636	-10.00197072407685	2.402089052188916e-15	59.0517839907226	1.030648059814586	-5.00116937774149	3.122052588868944e-16	4.099416156351205e-16	0	-4.188132676653675e-16	1.662657183818239e-29	8.624760496606754e-16	1.296261462733503e-25	3.393086633464157e-15	2.537915025958337e-06	2.531848921726347e-06	2.21149974861781e-14	1.702995296468413e-15	-3.012913518682631e-15	-3.304684982999922e-17	-9.588629803233888e-16	2.531438145871184e-06	2.531850375790696e-06	3.433870967313715e-15	6.347476471784806e-16
12.76807594299316	2.414286681609583e-26	7.057140891343481e-16	1.869648619541996e-26	-1.252823479475866e-17	0.93	1.307614958261183e-17	-13.80910601112558	-2.561977621372228	-39.99945287346052	0.004656013275882197	8.126276168071143e-05	-5.001166627929172	-1.628028700577654e-20	-5.611034297370196e-21	42.69785524881454	-10.00196708027287	2.402089052188916e-15	59.05223011502984	1.030655846152621	-5.001166623681859	-2.928157132628167e-22	2.756588903867021e-20	0	-4.210962742301812e-15	6.708248586524764e-33	-1.688129626427078e-18	-7.277181287065777e-26	9.717238686807102e-19	1.086833795998249e-16	1.086814526394482e-16	1.57884097659544e-15	-8.606618918029382e-18	-2.264483338184367e-18	-1.969839944528645e-20	-5.727279152395903e-19	1.086833774058624e-16	1.086834362641171e-16	-4.574090988413314e-16	-1.650789786714582e-16
12.77207708358765	0	0	0	0	0.93	0	-11.62164323842865	-3.334227133462563	-39.99944883829766	0.004564283888996661	7.966178185872312e-05	-5.001145931793622	0	0	42.71218417972994	-10.00193764195348	2.40156720057269e-15	59.05775824649032	1.030752330248089	-5.001145927621645	0	0	0	0	0	0	0	0	0	0	0	0	0	0	0	0	0	0	0
12.78107595443726	0	0	0	0	0.93	0	-9.479508068641827	-4.074634265120384	-39.99944440612412	0.00447250193671589	7.805988459751535e-05	-5.00112601150006	0	0	42.72608185392458	-10.00190925145355	2.40156720057269e-15	59.06311551610609	1.030845832241801	-5.001126007400598	0	0	0	0	0	0	0	0	0	6.081332333517786e-39	0	0	0	0	0	0	0	0	0
12.79107189178467	0	0	0	0	0.93	0	-3.179967985932767	-0.9544637265995543	-39.99940233092128	0.004312704627984896	7.527089542433363e-05	-5.001063861000699	0	0	42.76821201899412	-10.00182142466985	2.40156720057269e-15	59.07946029676035	1.031131102479734	-5.001063857127478	0	0	0	0	0	0	0	0	3.767590922279418e-39	0	0	0	0	0	0	9.448963027134225e-40	0	0	0
12.79808187484741	0	0	0	0	0.93	0	-0.2052638888879306	-1.607046875535922	-39.99939598885228	0.004114620659442418	7.181367797785051e-05	-5.001042916567171	0	0	42.78383024463844	-10.00179114464588	2.40156720057269e-15	59.08561690525452	1.031238555568714	-5.00104291277019	0	0	0	0	0	0	0	0	0	0	0	0	0	0	0	0	0	0	0
12.80507683753967	0	0	0	0	0.93	0	0.8846508854362612	-1.75843280045208	-39.99939386625564	0.004034008449526921	7.040672949751627e-05	-5.001019427702494	0	0	42.79873851191154	-10.001758343513	2.40156720057269e-15	59.09113287923186	1.031334827476073	-5.001019423991017	0	0	0	0	0	0	0	0	0	2.463717860241051e-38	0	0	0	0	0	0	2.463717860241051e-38	0	0
12.83208012580872	0	0	0	0	0.93	0	1.472129532267086	-1.641241445290136	-39.99939232748233	0.004067731774815439	7.099531255852197e-05	-5.001016495526438	0	0	42.80030594247846	-10.00175436216733	2.40156720057269e-15	59.09166287635091	1.031344077670826	-5.001016491825636	0	0	0	0	0	0	0	0	0	9.552640780512588e-40	0	0	0	0	0	0	0	0	0
12.83607602119446	0	0	0	0	0.93	0	2.591112452564987	-1.702188498861297	-39.9993910614064	0.003965585841854882	6.921252971083885e-05	-5.000996003782578	0	0	42.81381235672049	-10.00172547027753	2.40156720057269e-15	59.09670338612904	1.031432051162434	-5.000996000156374	0	0	0	0	0	0	0	0	0	9.536987740058795e-39	0	0	0	0	0	0	9.536987740058795e-39	0	0
12.8420729637146	0	0	0	0	0.93	0	3.316849818222322	-1.728880157445004	-39.99939044162211	0.003896778405129012	6.801161339011475e-05	-5.00097676759098	0	0	42.82621676596941	-10.00169854784042	2.40156720057269e-15	59.10132631853923	1.031512736554089	-5.000976764034799	0	0	0	0	0	0	0	0	4.209429071474227e-38	4.209429071474227e-38	0	0	0	0	0	5.088621320543138e-39	0	0	0
12.84907197952271	0	0	0	0	0.93	0	4.709770144243279	-1.60183251914742	-39.99938801942984	0.004021006918111809	7.017980996652108e-05	-5.000961671279766	0	0	42.83731403758672	-10.00167667719406	2.40156720057269e-15	59.10557488109411	1.031586887959148	-5.000961667778539	0	0	0	0	0	0	0	0	0	0	0	0	0	0	0	0	0	0	0
12.86208200454712	0	0	0	0	0.93	0	5.429383061778251	-1.624429264284206	-39.9993874597426	0.00394776274514161	6.890145799029088e-05	-5.00095878897776	0	0	42.83891913472175	-10.00167272075894	2.40156720057269e-15	59.10611849956325	1.031596375891309	-5.000958785487031	0	0	0	0	0	0	0	0	0	0	0	0	0	0	0	0	0	0	0
12.86607193946838	0	0	0	0	0.93	0	5.991262260272821	-1.598443583798199	-39.99938712956323	0.004014028857880765	7.005801984008689e-05	-5.000956209780988	0	0	42.84036064973873	-10.00166917710243	2.40156720057269e-15	59.10660706124629	1.031604902901277	-5.000956206299645	0	0	0	0	0	0	0	0	1.418215849275985e-38	1.052357267868557e-38	0	0	0	0	0	1.418215849275985e-38	1.052357267868557e-38	0	0
12.87106800079346	0	0	0	0	0.93	0	6.814441566327424	-1.641593576249571	-39.99938626973547	0.003934034501438343	6.866185493715269e-05	-5.000937347268029	0	0	42.85304655930928	-10.00164247804772	2.40156720057269e-15	59.11134145982261	1.031687533744536	-5.000937343855351	0	0	0	0	0	0	0	0	0	0	0	0	0	0	0	0	0	0	0
12.87807393074036	0	0	0	0	0.93	0	7.829467819625356	-1.582152594830286	-39.99938731664173	0.004038566531985685	7.048628304399909e-05	-5.000921244357992	0	0	42.86446323344579	-10.00161935018437	2.40156720057269e-15	59.11564516122444	1.03176264750402	-5.000921241055786	0	0	0	0	0	0	0	0	0	0	0	0	0	0	0	0	0	0	0
12.88307404518127	0	-5.17254644302753e-34	0	0	0.93	0	8.597121172330711	-1.637202265211359	-39.99938650700885	0.003962402141187286	6.915696365179135e-05	-5.000917103483306	0	0	42.86684021210539	-10.00161361922967	2.40156720057269e-15	59.11645112805837	1.031776714278934	-5.000917100195938	0	0	0	0	0	0	0	0	1.052357267868557e-38	3.939680828046528e-40	0	-8.726825082925953e-53	0	0	0	1.052357267868557e-38	3.939680828046528e-40	0	-8.726825082925953e-53
12.89408397674561	-2.162818179030738e-12	3.683972096636781e-12	1.764928363499128e-13	-1.657962195942579e-18	0.93	-5.837059464059417e-19	10.20861805560892	-1.539173709200855	-39.99938974107389	0.004139390747726758	7.224599750596262e-05	-5.000899511848243	-4.985169388453495e-14	-8.367135278377237e-12	42.88014982584353	-10.00158789200603	2.40156720057269e-15	59.12150647600143	1.031864946745375	-5.000899508625183	-1.455360057838733e-11	3.118581714448086e-12	0	2.697683643071704e-17	-7.119334285060824e-30	-3.667922794445103e-11	4.113442726548427e-22	-9.170477960061892e-12	2.897108870066451e-06	2.770416203213289e-06	2.113602126556232e-18	2.698014285996194e-17	-1.132392600272108e-10	2.457513966686124e-12	-4.672093744039036e-11	2.776271448431116e-06	2.770400410345298e-06	-8.240886706630258e-17	-1.23031622434952e-17
12.89906978607178	-8.620910738379216e-35	0	-1.724182147675843e-34	0	0.93	0	11.01175125828236	-1.589214993590143	-39.99938939416386	0.004052425880556019	7.072817430873298e-05	-5.000895419068134	0	-2.509015245124237e-45	42.88253111123564	-10.00158220699575	2.40156720057269e-15	59.1223134988119	1.031879031950556	-5.000895415859736	0	-7.84067264101324e-46	-3.808391691388127e-63	2.00605912873443e-51	-1.360139889781474e-64	0	-7.092834262880502e-41	0	0	0	3.738724060541744e-52	-5.38806921148701e-36	0	0	0	0	0	3.589175098120074e-50	0
12.90908002853394	0	0	0	0	0.93	0	12.42752572520178	-1.693630858070612	-39.99938931030245	0.003912571934555237	6.828726247911298e-05	-5.000877943932974	0	0	42.89586712761755	-10.00155658818628	2.40156720057269e-15	59.1273237692682	1.031966477666434	-5.000877940787181	0	0	0	0	0	0	0	0	0	0	0	0	0	0	0	0	0	0	0
12.91507911682129	-8.620910738379216e-35	-1.293136610756882e-34	1.077613842297402e-34	0	0.93	0	12.99051477062103	-1.693483305817881	-39.99938997051282	0.003975153138761368	6.937951054237291e-05	-5.000875525160914	0	0	42.89729864918098	-10.00155321388483	2.40156720057269e-15	59.1278095013919	1.031974955291275	-5.000875522023786	0	0	0	0	0	0	0	0	0	3.165935652663645e-39	0	0	0	0	0	0	3.165935652663645e-39	0	0
12.92307305335999	-2.370750453054284e-34	4.525978137649089e-34	-1.185375226527142e-34	0	0.93	-4.078315292499078e-56	13.737816891896	-1.759840114392715	-39.99939010503736	0.003900756554335867	6.808104519190998e-05	-5.000871707283038	-3.445608094195272e-49	0	42.8995532456757	-10.00154788906957	2.40156720057269e-15	59.12857312573296	1.031988283050275	-5.000871704159591	-2.341474842571151e-49	0	0	0	0	0	0	0	0	7.452607016572741e-38	0	-4.119408934256435e-36	0	0	-1.646234978337741e-48	0	0	0	0
12.92807698249817	0	0	0	0	0.93	0	15.71025437904979	-1.698745426631178	-39.99939499453573	0.004128946460552906	7.206371037521439e-05	-5.000859891911462	0	0	42.90933078167318	-10.00153029275839	2.40156720057269e-15	59.13241261886984	1.032055294847122	-5.000859888830345	0	0	0	0	0	0	0	0	2.104714535737113e-38	0	0	0	0	0	0	2.104714535737113e-38	0	0	0
